<svg xmlns="http://www.w3.org/2000/svg" version="1.1" xmlns:xlink="http://www.w3.org/1999/xlink" xmlns:svgjs="http://svgjs.com/svgjs" width="1024" height="1024"><svg xmlns="http://www.w3.org/2000/svg" xmlns:xlink="http://www.w3.org/1999/xlink" width="1024" height="1024">
	<path fill="#001423" transform="scale(2 2)" d="M196.218 77.3206C207.278 58.6074 233.278 31.8461 255.057 24.764C259.232 24.6306 264.468 28.1393 267.93 30.0789C285.959 40.1799 304.434 57.3557 313.839 75.878C293.172 92.7516 281.492 99.3763 264.4 123.274C261.561 127.244 258.983 131.576 255.836 135.307L255.615 135.566C250.434 130.127 245.936 122.383 241.14 116.372C228.388 100.386 213.328 88.1713 196.218 77.3206Z"></path>
	<path fill="#001423" transform="scale(2 2)" d="M256.052 219.528C265.906 152.28 314.457 89.2721 384.228 78.4567C391.664 77.304 399.15 77.0971 406.657 76.8653C415.841 77.6564 426.089 76.9982 435.477 77.311C439.967 108.076 432.904 143.709 417.139 170.553C414.623 174.837 404.127 190.989 400.132 193.302C397.068 195.075 391.224 195.419 387.702 196.122C339.608 205.715 297.109 230.923 274.433 275.294C268.014 287.856 268.575 284.465 268.586 298.817L268.591 456.23C268.589 461.446 269.007 467.114 268.405 472.282C266.841 485.713 246.712 486.255 243.898 473.28C243.298 470.511 243.476 467.467 243.475 464.65L243.499 321.317C243.502 312.184 244.429 299.312 241.882 290.712C237.344 275.386 218.933 251.572 207.554 240.143C177.997 211.05 153.684 203.888 115.852 195.432C108.093 193.698 103.85 185.663 99.8683 179.421C82.4046 152.04 69.9983 110.244 77.2383 77.5201C89.9976 76.6524 106.874 76.4673 119.438 77.9077C188.98 85.8803 247.108 151.596 256.052 219.528Z"></path>
	<path fill="#001423" transform="scale(2 2)" d="M278.768 392.12C278.173 385.17 278.467 378.139 278.471 371.171C278.494 330.766 288.322 294.843 316.846 264.441C344.445 235.024 373.436 225.847 411.995 224.613C421.207 224.143 433.719 224.476 442.958 224.745C443.262 228.863 443.925 232.969 444.342 237.08C452.416 316.757 388.352 383.154 310.689 391.053C301.925 392.203 287.478 392.626 278.768 392.12Z"></path>
	<path fill="#001423" transform="scale(2 2)" d="M230.67 392.279C205.645 392.124 181.087 389.669 157.55 380.681C96.536 357.384 55.5791 289.461 69.1077 224.768C84.8777 224.627 100.64 224.348 116.31 226.407C190.213 236.119 233.449 303.607 233.467 374.527C233.468 380.202 233.879 386.389 233.135 392.003C232.503 392.399 231.414 392.272 230.67 392.279Z"></path>
</svg><style>@media (prefers-color-scheme: light) { :root { filter: none; } }
</style></svg>